<svg width="17" height="17" viewBox="0 0 17 17" fill="none" xmlns="http://www.w3.org/2000/svg">
<path d="M6.74903 1.06228C6.89014 0.748422 7.13219 0.479634 7.44415 0.290372C7.75611 0.101111 8.12377 0 8.5 0C8.87623 0 9.24389 0.101111 9.55585 0.290372C9.86781 0.479634 10.1099 0.748422 10.251 1.06228C11.6475 1.40793 12.8794 2.15659 13.7574 3.1933C14.6354 4.23 15.1109 5.49741 15.111 6.80088V10.7929L16.8412 13.1285C16.9361 13.2565 16.9906 13.4052 16.9989 13.5589C17.0072 13.7126 16.969 13.8655 16.8883 14.0011C16.8076 14.1368 16.6876 14.2502 16.5409 14.3293C16.3942 14.4083 16.2264 14.4501 16.0554 14.4501H11.7724C11.6587 15.1581 11.2653 15.8056 10.6643 16.2739C10.0633 16.7422 9.29498 17 8.5 17C7.70502 17 6.93665 16.7422 6.33565 16.2739C5.73465 15.8056 5.34127 15.1581 5.22755 14.4501H0.94457C0.773588 14.4501 0.605806 14.4083 0.459125 14.3293C0.312444 14.2502 0.192366 14.1368 0.111703 14.0011C0.0310396 13.8655 -0.00718309 13.7126 0.00111239 13.5589C0.00940788 13.4052 0.0639104 13.2565 0.158805 13.1285L1.889 10.7929V6.80088C1.889 4.06077 3.94785 1.75241 6.74903 1.06228ZM7.16458 14.4501C7.26212 14.6988 7.44298 14.9142 7.68224 15.0665C7.9215 15.2189 8.20738 15.3007 8.50047 15.3007C8.79356 15.3007 9.07944 15.2189 9.3187 15.0665C9.55796 14.9142 9.73883 14.6988 9.83637 14.4501H7.16363H7.16458ZM8.5 2.55133C7.24761 2.55133 6.04651 2.99905 5.16094 3.79599C4.27537 4.59294 3.77786 5.67383 3.77786 6.80088V11.0504C3.7779 11.2183 3.72269 11.3825 3.61919 11.5221L2.70971 12.7503H14.2893L13.3799 11.5221C13.2767 11.3824 13.2218 11.2182 13.2221 11.0504V6.80088C13.2221 5.67383 12.7246 4.59294 11.8391 3.79599C10.9535 2.99905 9.75239 2.55133 8.5 2.55133Z" fill="white"/>
</svg>
